<svg xmlns="http://www.w3.org/2000/svg" width="1200" height="675" viewBox="0 0 1200 675"><defs><filter id="shadow"><feDropShadow dx="0" dy="18" stdDeviation="20" flood-color="#0f172a" flood-opacity="0.16"/></filter></defs><rect width="1200" height="675" rx="40" fill="#f7f0e8"/><circle cx="1040" cy="120" r="190" fill="#14b8a6" opacity="0.10"/><circle cx="120" cy="590" r="210" fill="#14b8a6" opacity="0.09"/><g filter="url(#shadow)"><rect x="92" y="78" width="1016" height="520" rx="34" fill="#ffffff"/><text x="132" y="150" font-family="Inter, Arial" font-size="40" font-weight="900" fill="#0f172a">How AI Can Increase CTR by 60% KPI Model</text><text x="132" y="188" font-family="Inter, Arial" font-size="21" fill="#5b667b">+60% CTR and +25% CVR in TranslAsset AI context</text><rect x="132" y="260" width="200" height="150" rx="24" fill="#f8fbff" stroke="#dce7f9"/><text x="160" y="326" font-family="Inter, Arial" font-size="38" font-weight="900" fill="#14b8a6">+12pp</text><rect x="160" y="360" width="96" height="12" rx="6" fill="#14b8a6" opacity="0.38"/><rect x="160" y="386" width="126" height="12" rx="6" fill="#14b8a6" opacity="0.34"/><rect x="372" y="260" width="200" height="150" rx="24" fill="#f8fbff" stroke="#dce7f9"/><text x="400" y="326" font-family="Inter, Arial" font-size="38" font-weight="900" fill="#14b8a6">ROAS</text><rect x="400" y="360" width="114" height="12" rx="6" fill="#14b8a6" opacity="0.38"/><rect x="400" y="386" width="116" height="12" rx="6" fill="#14b8a6" opacity="0.34"/><rect x="612" y="260" width="200" height="150" rx="24" fill="#f8fbff" stroke="#dce7f9"/><text x="640" y="326" font-family="Inter, Arial" font-size="38" font-weight="900" fill="#14b8a6">AOV</text><rect x="640" y="360" width="132" height="12" rx="6" fill="#14b8a6" opacity="0.38"/><rect x="640" y="386" width="106" height="12" rx="6" fill="#14b8a6" opacity="0.34"/><rect x="852" y="260" width="200" height="150" rx="24" fill="#f8fbff" stroke="#dce7f9"/><text x="880" y="326" font-family="Inter, Arial" font-size="38" font-weight="900" fill="#14b8a6">Margin</text><rect x="880" y="360" width="150" height="12" rx="6" fill="#14b8a6" opacity="0.38"/><rect x="880" y="386" width="96" height="12" rx="6" fill="#14b8a6" opacity="0.34"/><path d="M145 500 L1050 500" stroke="#e2e8f0" stroke-width="4"/><path d="M145 500 C325 460 445 480 585 420 S850 360 1050 315" fill="none" stroke="#14b8a6" stroke-width="8" stroke-linecap="round"/></g></svg>