<svg xmlns="http://www.w3.org/2000/svg" width="1600" height="900" viewBox="0 0 1600 900" role="img"><defs><filter id="shadow" x="-20%" y="-20%" width="140%" height="150%"><feDropShadow dx="0" dy="14" stdDeviation="14" flood-color="#0f172a" flood-opacity="0.12"/></filter></defs><rect width="1600" height="900" fill="#f5efe6"/><rect x="120" y="225" width="1360" height="460" rx="38" fill="#efe2d0" opacity="0.72"/><rect x="220" y="230" width="370" height="42" rx="21" fill="#fff" opacity="0.58"/><path d="M303 398 C 339 398, 315 455, 330 455" fill="none" stroke="#94a3b8" stroke-width="5" stroke-linecap="round"/><g transform="rotate(2 225 390)" filter="url(#shadow)"><rect x="165" y="340" width="148" height="112" rx="10" fill="#f7d7a8"/><text x="183" y="404" font-family="Arial, sans-serif" font-size="21" font-weight="700" fill="#172033">Buy Box Lost?</text></g><path d="M488 513 C 524 513, 500 398, 515 398" fill="none" stroke="#94a3b8" stroke-width="5" stroke-linecap="round"/><g transform="rotate(-2 410 505)" filter="url(#shadow)"><rect x="350" y="455" width="148" height="112" rx="10" fill="#fff"/><text x="368" y="519" font-family="Arial, sans-serif" font-size="21" font-weight="700" fill="#172033">Price</text></g><path d="M673 398 C 709 398, 685 455, 700 455" fill="none" stroke="#94a3b8" stroke-width="5" stroke-linecap="round"/><g transform="rotate(2 595 390)" filter="url(#shadow)"><rect x="535" y="340" width="148" height="112" rx="10" fill="#fff"/><text x="553" y="404" font-family="Arial, sans-serif" font-size="21" font-weight="700" fill="#172033">Stock</text></g><path d="M858 513 C 894 513, 870 398, 885 398" fill="none" stroke="#94a3b8" stroke-width="5" stroke-linecap="round"/><g transform="rotate(-2 780 505)" filter="url(#shadow)"><rect x="720" y="455" width="148" height="112" rx="10" fill="#fff"/><text x="738" y="519" font-family="Arial, sans-serif" font-size="21" font-weight="700" fill="#172033">Seller</text></g><path d="M1043 398 C 1079 398, 1055 455, 1070 455" fill="none" stroke="#94a3b8" stroke-width="5" stroke-linecap="round"/><g transform="rotate(2 965 390)" filter="url(#shadow)"><rect x="905" y="340" width="148" height="112" rx="10" fill="#fff"/><text x="923" y="404" font-family="Arial, sans-serif" font-size="21" font-weight="700" fill="#172033">PDP</text></g><path d="M1228 513 C 1264 513, 1240 398, 1255 398" fill="none" stroke="#94a3b8" stroke-width="5" stroke-linecap="round"/><g transform="rotate(-2 1150 505)" filter="url(#shadow)"><rect x="1090" y="455" width="148" height="112" rx="10" fill="#fff"/><text x="1108" y="519" font-family="Arial, sans-serif" font-size="21" font-weight="700" fill="#172033">Margin</text></g><g transform="rotate(2 1335 390)" filter="url(#shadow)"><rect x="1275" y="340" width="148" height="112" rx="10" fill="#edf2f7"/><text x="1293" y="404" font-family="Arial, sans-serif" font-size="21" font-weight="700" fill="#172033">No Action</text></g></svg>