<svg xmlns="http://www.w3.org/2000/svg" width="1600" height="900" viewBox="0 0 1600 900" role="img"><defs><filter id="shadow" x="-20%" y="-20%" width="140%" height="150%"><feDropShadow dx="0" dy="18" stdDeviation="18" flood-color="#0f172a" flood-opacity="0.10"/></filter></defs><rect width="1600" height="900" fill="#fbfaf7"/><rect x="130" y="180" width="1340" height="540" rx="36" fill="#f8fafc" stroke="#e2e8f0"/><g filter="url(#shadow)"><rect x="194" y="285" width="220" height="270" rx="22" fill="#fff"/><text x="222" y="350" font-family="Arial, sans-serif" font-size="24" font-weight="700" fill="#172033">Buy Box</text><rect x="222" y="440" width="54" height="78" rx="12" fill="#2563eb" opacity="0.78"/><rect x="296" y="461" width="54" height="56.16" rx="12" fill="#f7d7a8"/><path d="M222 610h154" stroke="#e2e8f0" stroke-width="10" stroke-linecap="round"/></g><g filter="url(#shadow)"><rect x="442" y="285" width="220" height="270" rx="22" fill="#fff"/><text x="470" y="350" font-family="Arial, sans-serif" font-size="24" font-weight="700" fill="#172033">AOV</text><rect x="470" y="440" width="54" height="96" rx="12" fill="#2563eb" opacity="0.78"/><rect x="544" y="452" width="54" height="69.12" rx="12" fill="#f7d7a8"/><path d="M470 610h154" stroke="#e2e8f0" stroke-width="10" stroke-linecap="round"/></g><g filter="url(#shadow)"><rect x="690" y="285" width="220" height="270" rx="22" fill="#fff"/><text x="718" y="350" font-family="Arial, sans-serif" font-size="24" font-weight="700" fill="#172033">Margin</text><rect x="718" y="440" width="54" height="114" rx="12" fill="#2563eb" opacity="0.78"/><rect x="792" y="443" width="54" height="82.08" rx="12" fill="#f7d7a8"/><path d="M718 610h154" stroke="#e2e8f0" stroke-width="10" stroke-linecap="round"/></g><g filter="url(#shadow)"><rect x="938" y="285" width="220" height="270" rx="22" fill="#fff"/><text x="966" y="350" font-family="Arial, sans-serif" font-size="24" font-weight="700" fill="#172033">Stock</text><rect x="966" y="440" width="54" height="132" rx="12" fill="#2563eb" opacity="0.78"/><rect x="1040" y="434" width="54" height="95.03999999999999" rx="12" fill="#f7d7a8"/><path d="M966 610h154" stroke="#e2e8f0" stroke-width="10" stroke-linecap="round"/></g><g filter="url(#shadow)"><rect x="1186" y="285" width="220" height="270" rx="22" fill="#fff"/><text x="1214" y="350" font-family="Arial, sans-serif" font-size="24" font-weight="700" fill="#172033">PDP</text><rect x="1214" y="440" width="54" height="150" rx="12" fill="#2563eb" opacity="0.78"/><rect x="1288" y="425" width="54" height="108" rx="12" fill="#f7d7a8"/><path d="M1214 610h154" stroke="#e2e8f0" stroke-width="10" stroke-linecap="round"/></g></svg>