<svg xmlns="http://www.w3.org/2000/svg" width="1600" height="900" viewBox="0 0 1600 900" role="img"><defs><filter id="shadow" x="-20%" y="-20%" width="140%" height="150%"><feDropShadow dx="0" dy="18" stdDeviation="18" flood-color="#0f172a" flood-opacity="0.10"/></filter></defs><rect width="1600" height="900" fill="#f8fafc"/><rect x="120" y="155" width="1360" height="590" rx="34" fill="#fff" stroke="#e2e8f0"/><path d="M180 252H1420" stroke="#e2e8f0" stroke-width="4"/><path d="M328 393 C 316.2 393, 339.8 500, 432 500" fill="none" stroke="#cbd5e1" stroke-width="5" stroke-linecap="round"/><g filter="url(#shadow)"><rect x="210" y="335" width="170" height="116" rx="18" fill="#fff"/><circle cx="244" cy="369" r="12" fill="#2563eb" opacity="0.85"/><text x="244" y="411" font-family="Arial, sans-serif" font-size="24" font-weight="700" fill="#172033">Signal</text></g><path d="M564 558 C 552.2 558, 575.8 393, 668 393" fill="none" stroke="#cbd5e1" stroke-width="5" stroke-linecap="round"/><g filter="url(#shadow)"><rect x="446" y="500" width="170" height="116" rx="18" fill="#fff"/><circle cx="480" cy="534" r="12" fill="#2563eb" opacity="0.85"/><text x="480" y="576" font-family="Arial, sans-serif" font-size="24" font-weight="700" fill="#172033">Price</text></g><path d="M800 393 C 788.2 393, 811.8 500, 904 500" fill="none" stroke="#cbd5e1" stroke-width="5" stroke-linecap="round"/><g filter="url(#shadow)"><rect x="682" y="335" width="170" height="116" rx="18" fill="#fff"/><circle cx="716" cy="369" r="12" fill="#2563eb" opacity="0.85"/><text x="716" y="411" font-family="Arial, sans-serif" font-size="24" font-weight="700" fill="#172033">Stock</text></g><path d="M1036 558 C 1024.2 558, 1047.8 393, 1140 393" fill="none" stroke="#cbd5e1" stroke-width="5" stroke-linecap="round"/><g filter="url(#shadow)"><rect x="918" y="500" width="170" height="116" rx="18" fill="#fff"/><circle cx="952" cy="534" r="12" fill="#2563eb" opacity="0.85"/><text x="952" y="576" font-family="Arial, sans-serif" font-size="24" font-weight="700" fill="#172033">Seller</text></g><path d="M1272 393 C 1260.2 393, 1283.8 500, 1376 500" fill="none" stroke="#cbd5e1" stroke-width="5" stroke-linecap="round"/><g filter="url(#shadow)"><rect x="1154" y="335" width="170" height="116" rx="18" fill="#fff"/><circle cx="1188" cy="369" r="12" fill="#2563eb" opacity="0.85"/><text x="1188" y="411" font-family="Arial, sans-serif" font-size="24" font-weight="700" fill="#172033">PDP</text></g><g filter="url(#shadow)"><rect x="1390" y="500" width="170" height="116" rx="18" fill="#fff"/><circle cx="1424" cy="534" r="12" fill="#2563eb" opacity="0.85"/><text x="1424" y="576" font-family="Arial, sans-serif" font-size="24" font-weight="700" fill="#172033">Action</text></g></svg>