<svg xmlns="http://www.w3.org/2000/svg" width="1600" height="900" viewBox="0 0 1600 900" role="img"><defs><linearGradient id="bg" x1="0" x2="1" y1="0" y2="1"><stop offset="0" stop-color="#fbfaf7"/><stop offset="0.58" stop-color="#f4f7fb"/><stop offset="1" stop-color="#f7d7a8" stop-opacity="0.55"/></linearGradient><filter id="shadow" x="-20%" y="-20%" width="140%" height="150%"><feDropShadow dx="0" dy="24" stdDeviation="26" flood-color="#0f172a" flood-opacity="0.12"/></filter></defs><rect width="1600" height="900" fill="url(#bg)"/><circle cx="1320" cy="160" r="240" fill="#fff" opacity="0.55"/><g transform="translate(0 0) scale(1)"><rect x="210" y="535" width="1190" height="155" rx="32" fill="#e5d7c5" opacity="0.82"/><rect x="245" y="225" width="560" height="340" rx="22" fill="#f7f9fc" filter="url(#shadow)"/><rect x="285" y="265" width="480" height="260" rx="16" fill="#172033"/><rect x="318" y="300" width="160" height="18" rx="9" fill="#2563eb" opacity="0.9"/><rect x="318" y="345" width="385" height="16" rx="8" fill="#dbe4ef" opacity="0.42"/><rect x="318" y="386" width="320" height="16" rx="8" fill="#dbe4ef" opacity="0.33"/><rect x="355" y="565" width="405" height="24" rx="12" fill="#c9d2dd"/><rect x="875" y="280" width="320" height="390" rx="24" fill="#fff" filter="url(#shadow)"/><rect x="915" y="330" width="245" height="18" rx="9" fill="#d5dde8"/><rect x="915" y="380" width="210" height="14" rx="7" fill="#e6ebf2"/><rect x="915" y="424" width="250" height="14" rx="7" fill="#e6ebf2"/><rect x="915" y="468" width="180" height="14" rx="7" fill="#e6ebf2"/><rect x="915" y="545" width="92" height="92" rx="20" fill="#f7d7a8"/><rect x="1035" y="545" width="92" height="92" rx="20" fill="#eef4ff"/><rect x="1205" y="405" width="145" height="210" rx="18" fill="#f7d08a" filter="url(#shadow)" opacity="0.95"/><path d="M1250 445h54M1250 488h68M1250 531h46" stroke="#7c5b22" stroke-width="12" stroke-linecap="round" opacity="0.28"/><rect x="705" y="610" width="118" height="20" rx="10" fill="#2563eb" opacity="0.75"/></g></svg>