<svg xmlns="http://www.w3.org/2000/svg" width="1200" height="675" viewBox="0 0 1200 675"><defs><filter id="shadow"><feDropShadow dx="0" dy="18" stdDeviation="20" flood-color="#0f172a" flood-opacity="0.16"/></filter></defs><rect width="1200" height="675" rx="40" fill="#f7f0e8"/><circle cx="1040" cy="120" r="190" fill="#2563eb" opacity="0.10"/><circle cx="120" cy="590" r="210" fill="#14b8a6" opacity="0.09"/><g filter="url(#shadow)"><rect x="96" y="82" width="1008" height="510" rx="32" fill="#ffffff"/><text x="132" y="152" font-family="Inter, Arial" font-size="40" font-weight="900" fill="#0f172a">How to Build an E-commerce Growth Engine Framework</text><text x="132" y="190" font-family="Inter, Arial" font-size="21" fill="#5b667b">DACH e-commerce operating system connecting demand, marketplace execution, PDP quality, p...</text><rect x="134" y="292" width="156" height="116" rx="22" fill="#f8fbff" stroke="#dce7f9"/><text x="156" y="356" font-family="Inter, Arial" font-size="22" font-weight="800" fill="#0f172a">Signals</text><path d="M298 350 L322 350" stroke="#94a3b8" stroke-width="4" stroke-linecap="round"/><rect x="329" y="292" width="156" height="116" rx="22" fill="#f8fbff" stroke="#dce7f9"/><text x="351" y="356" font-family="Inter, Arial" font-size="22" font-weight="800" fill="#0f172a">Guardrails</text><path d="M493 350 L517 350" stroke="#94a3b8" stroke-width="4" stroke-linecap="round"/><rect x="524" y="292" width="156" height="116" rx="22" fill="#2563eb" stroke="#dce7f9"/><text x="546" y="356" font-family="Inter, Arial" font-size="22" font-weight="800" fill="#ffffff">Decision</text><path d="M688 350 L712 350" stroke="#94a3b8" stroke-width="4" stroke-linecap="round"/><rect x="719" y="292" width="156" height="116" rx="22" fill="#f8fbff" stroke="#dce7f9"/><text x="741" y="356" font-family="Inter, Arial" font-size="22" font-weight="800" fill="#0f172a">Action</text><path d="M883 350 L907 350" stroke="#94a3b8" stroke-width="4" stroke-linecap="round"/><rect x="914" y="292" width="156" height="116" rx="22" fill="#f8fbff" stroke="#dce7f9"/><text x="936" y="356" font-family="Inter, Arial" font-size="22" font-weight="800" fill="#0f172a">Learning</text><text x="132" y="500" font-family="Inter, Arial" font-size="24" font-weight="800" fill="#2563eb">simple decision logic, not a black-box dashboard</text></g></svg>