<svg xmlns="http://www.w3.org/2000/svg" width="1200" height="675" viewBox="0 0 1200 675"><defs><filter id="shadow"><feDropShadow dx="0" dy="18" stdDeviation="20" flood-color="#0f172a" flood-opacity="0.16"/></filter></defs><rect width="1200" height="675" rx="40" fill="#f7f0e8"/><circle cx="1040" cy="120" r="190" fill="#2563eb" opacity="0.10"/><circle cx="120" cy="590" r="210" fill="#14b8a6" opacity="0.09"/><g filter="url(#shadow)"><rect x="100" y="76" width="1000" height="520" rx="34" fill="#fffdf8"/><rect x="150" y="136" width="900" height="390" rx="20" fill="#ffffff" stroke="#e7d8c5"/><text x="180" y="190" font-family="Inter, Arial" font-size="40" font-weight="900" fill="#0f172a">How to Build an E-commerce Growth Engine Video</text><text x="180" y="230" font-family="Inter, Arial" font-size="21" fill="#5b667b">Related execution video from the SASMAZ portfolio</text><rect x="190" y="305" width="150" height="108" rx="16" fill="#fef3c7"/><text x="220" y="365" font-family="Inter, Arial" font-size="24" font-weight="800" fill="#0f172a">brief</text><rect x="395" y="339" width="150" height="108" rx="16" fill="#dbeafe"/><text x="425" y="399" font-family="Inter, Arial" font-size="24" font-weight="800" fill="#0f172a">model</text><rect x="600" y="305" width="150" height="108" rx="16" fill="#dcfce7"/><text x="630" y="365" font-family="Inter, Arial" font-size="24" font-weight="800" fill="#0f172a">review</text><rect x="805" y="339" width="150" height="108" rx="16" fill="#fce7f3"/><text x="835" y="399" font-family="Inter, Arial" font-size="24" font-weight="800" fill="#0f172a">publish</text></g><circle cx="600" cy="338" r="70" fill="#ffffff" opacity="0.95"/><path d="M580 295 L580 381 L650 338 Z" fill="#2563eb"/></svg>