<svg xmlns="http://www.w3.org/2000/svg" width="1200" height="675" viewBox="0 0 1200 675">
  <defs>
    <linearGradient id="bg" x1="0" x2="1" y1="0" y2="1"><stop stop-color="#06131a"/><stop offset="1" stop-color="#eff6ff"/></linearGradient>
    <linearGradient id="line" x1="0" x2="1"><stop stop-color="#7c3aed"/><stop offset="1" stop-color="#14b8a6"/></linearGradient>
    <filter id="shadow"><feDropShadow dx="0" dy="20" stdDeviation="22" flood-color="#0f172a" flood-opacity="0.22"/></filter>
  </defs>
  <rect width="1200" height="675" rx="42" fill="url(#bg)"/>
  <circle cx="1030" cy="95" r="170" fill="#7c3aed" opacity="0.14"/>
  <circle cx="150" cy="560" r="180" fill="#14b8a6" opacity="0.12"/>
  <g filter="url(#shadow)">
    <rect x="82" y="82" width="1036" height="511" rx="34" fill="white" opacity="0.94"/>
    <text x="126" y="154" font-family="Inter, Arial" font-size="42" font-weight="800" fill="#0f172a">LTV / CAC Framework: A Real Operating System KPI Model</text>
    <text x="126" y="198" font-family="Inter, Arial" font-size="22" fill="#526179">+69% LTV and ~60% LTV/CAC improvement where lifecycle economics were connected to acquisition rules</text>
    <path d="M126 410 C250 310 340 360 430 300 S630 250 736 318 S918 402 1070 286" fill="none" stroke="url(#line)" stroke-width="12" stroke-linecap="round"/>
    <rect x="126" y="455" width="202" height="88" rx="20" fill="#f8fbff" stroke="#dce7f9"/><text x="150" y="508" font-family="Inter, Arial" font-size="24" font-weight="800" fill="#0f172a">CTR</text><rect x="372" y="455" width="202" height="88" rx="20" fill="#f8fbff" stroke="#dce7f9"/><text x="396" y="508" font-family="Inter, Arial" font-size="24" font-weight="800" fill="#0f172a">CVR</text><rect x="618" y="455" width="202" height="88" rx="20" fill="#f8fbff" stroke="#dce7f9"/><text x="642" y="508" font-family="Inter, Arial" font-size="24" font-weight="800" fill="#0f172a">ROAS</text><rect x="864" y="455" width="202" height="88" rx="20" fill="#f8fbff" stroke="#dce7f9"/><text x="888" y="508" font-family="Inter, Arial" font-size="24" font-weight="800" fill="#0f172a">LTV</text>
    <rect x="126" y="235" width="260" height="122" rx="24" fill="#0f2530"/><text x="154" y="286" font-family="Inter, Arial" font-size="22" font-weight="800" fill="white">KPI</text><text x="154" y="322" font-family="Inter, Arial" font-size="18" fill="#a9d4ff">SASMAZ operator system</text>
    <rect x="860" y="232" width="210" height="130" rx="24" fill="#eef4ff"/><text x="890" y="283" font-family="Inter, Arial" font-size="44" font-weight="900" fill="#7c3aed">AI</text><text x="890" y="322" font-family="Inter, Arial" font-size="18" fill="#526179">decision layer</text>
  </g>
  
</svg>