<svg xmlns="http://www.w3.org/2000/svg" width="1600" height="900" viewBox="0 0 1600 900" role="img"><defs><filter id="shadow" x="-20%" y="-20%" width="140%" height="150%"><feDropShadow dx="0" dy="18" stdDeviation="18" flood-color="#0f172a" flood-opacity="0.10"/></filter></defs><rect width="1600" height="900" fill="#f8fafc"/><rect x="120" y="155" width="1360" height="590" rx="34" fill="#fff" stroke="#e2e8f0"/><path d="M180 252H1420" stroke="#e2e8f0" stroke-width="4"/><path d="M328 393 C 342.75 393, 372.25 500, 491 500" fill="none" stroke="#cbd5e1" stroke-width="5" stroke-linecap="round"/><g filter="url(#shadow)"><rect x="210" y="335" width="170" height="116" rx="18" fill="#fff"/><circle cx="244" cy="369" r="12" fill="#be123c" opacity="0.85"/><text x="244" y="411" font-family="Arial, sans-serif" font-size="24" font-weight="700" fill="#172033">Cohort</text></g><path d="M623 558 C 637.75 558, 667.25 393, 786 393" fill="none" stroke="#cbd5e1" stroke-width="5" stroke-linecap="round"/><g filter="url(#shadow)"><rect x="505" y="500" width="170" height="116" rx="18" fill="#fff"/><circle cx="539" cy="534" r="12" fill="#be123c" opacity="0.85"/><text x="539" y="576" font-family="Arial, sans-serif" font-size="24" font-weight="700" fill="#172033">Value</text></g><path d="M918 393 C 932.75 393, 962.25 500, 1081 500" fill="none" stroke="#cbd5e1" stroke-width="5" stroke-linecap="round"/><g filter="url(#shadow)"><rect x="800" y="335" width="170" height="116" rx="18" fill="#fff"/><circle cx="834" cy="369" r="12" fill="#be123c" opacity="0.85"/><text x="834" y="411" font-family="Arial, sans-serif" font-size="24" font-weight="700" fill="#172033">Cost</text></g><path d="M1213 558 C 1227.75 558, 1257.25 393, 1376 393" fill="none" stroke="#cbd5e1" stroke-width="5" stroke-linecap="round"/><g filter="url(#shadow)"><rect x="1095" y="500" width="170" height="116" rx="18" fill="#fff"/><circle cx="1129" cy="534" r="12" fill="#be123c" opacity="0.85"/><text x="1129" y="576" font-family="Arial, sans-serif" font-size="24" font-weight="700" fill="#172033">Payback</text></g><g filter="url(#shadow)"><rect x="1390" y="335" width="170" height="116" rx="18" fill="#fff"/><circle cx="1424" cy="369" r="12" fill="#be123c" opacity="0.85"/><text x="1424" y="411" font-family="Arial, sans-serif" font-size="24" font-weight="700" fill="#172033">Guardrail</text></g></svg>