<svg xmlns="http://www.w3.org/2000/svg" width="1600" height="900" viewBox="0 0 1600 900" role="img"><defs><filter id="shadow" x="-20%" y="-20%" width="140%" height="150%"><feDropShadow dx="0" dy="18" stdDeviation="18" flood-color="#0f172a" flood-opacity="0.10"/></filter></defs><rect width="1600" height="900" fill="#fbfaf7"/><rect x="130" y="180" width="1340" height="540" rx="36" fill="#f8fafc" stroke="#e2e8f0"/><g filter="url(#shadow)"><rect x="318" y="285" width="220" height="270" rx="22" fill="#fff"/><text x="346" y="350" font-family="Arial, sans-serif" font-size="24" font-weight="700" fill="#172033">Visibility</text><rect x="346" y="440" width="54" height="78" rx="12" fill="#0f766e" opacity="0.78"/><rect x="420" y="461" width="54" height="56.16" rx="12" fill="#d8efe7"/><path d="M346 610h154" stroke="#e2e8f0" stroke-width="10" stroke-linecap="round"/></g><g filter="url(#shadow)"><rect x="566" y="285" width="220" height="270" rx="22" fill="#fff"/><text x="594" y="350" font-family="Arial, sans-serif" font-size="24" font-weight="700" fill="#172033">ATC</text><rect x="594" y="440" width="54" height="96" rx="12" fill="#0f766e" opacity="0.78"/><rect x="668" y="452" width="54" height="69.12" rx="12" fill="#d8efe7"/><path d="M594 610h154" stroke="#e2e8f0" stroke-width="10" stroke-linecap="round"/></g><g filter="url(#shadow)"><rect x="814" y="285" width="220" height="270" rx="22" fill="#fff"/><text x="842" y="350" font-family="Arial, sans-serif" font-size="24" font-weight="700" fill="#172033">CVR</text><rect x="842" y="440" width="54" height="114" rx="12" fill="#0f766e" opacity="0.78"/><rect x="916" y="443" width="54" height="82.08" rx="12" fill="#d8efe7"/><path d="M842 610h154" stroke="#e2e8f0" stroke-width="10" stroke-linecap="round"/></g><g filter="url(#shadow)"><rect x="1062" y="285" width="220" height="270" rx="22" fill="#fff"/><text x="1090" y="350" font-family="Arial, sans-serif" font-size="24" font-weight="700" fill="#172033">Rank</text><rect x="1090" y="440" width="54" height="132" rx="12" fill="#0f766e" opacity="0.78"/><rect x="1164" y="434" width="54" height="95.03999999999999" rx="12" fill="#d8efe7"/><path d="M1090 610h154" stroke="#e2e8f0" stroke-width="10" stroke-linecap="round"/></g></svg>