<svg xmlns="http://www.w3.org/2000/svg" width="1200" height="675" viewBox="0 0 1200 675"><defs><filter id="shadow"><feDropShadow dx="0" dy="18" stdDeviation="20" flood-color="#0f172a" flood-opacity="0.16"/></filter></defs><rect width="1200" height="675" rx="40" fill="#f7f0e8"/><circle cx="1040" cy="120" r="190" fill="#10b981" opacity="0.10"/><circle cx="120" cy="590" r="210" fill="#14b8a6" opacity="0.09"/><g filter="url(#shadow)"><rect x="88" y="78" width="1024" height="520" rx="34" fill="#fffdf8"/><rect x="126" y="126" width="370" height="270" rx="22" fill="#efe4d7"/><rect x="164" y="170" width="96" height="68" rx="12" fill="#ffffff"/><rect x="282" y="170" width="136" height="68" rx="12" fill="#ffffff"/><rect x="164" y="262" width="254" height="76" rx="12" fill="#ffffff"/><path d="M556 410 C650 342 725 370 798 312 C868 257 935 278 1030 218" fill="none" stroke="#10b981" stroke-width="10" stroke-linecap="round"/><rect x="556" y="162" width="458" height="52" rx="26" fill="#eef4ff"/><text x="590" y="196" font-family="Inter, Arial" font-size="22" font-weight="800" fill="#10b981">strategy room operating model</text><text x="126" y="472" font-family="Inter, Arial" font-size="42" font-weight="900" fill="#0f172a">SEO + PDP Optimization Framework</text><text x="126" y="518" font-family="Inter, Arial" font-size="22" fill="#5b667b">+48% first-page visibility and +9pp add-to-cart rate when search intent and PDP conversio...</text></g></svg>